{
  "accessors": [
    {
      "bufferView": 2,
      "componentType": 5126,
      "count": 2927,
      "max": [
        0.23213505744934082,
        0.22110283374786377,
        0.0017570100026205182
      ],
      "min": [
        -0.22115452587604523,
        -0.04634825140237808,
        -0.3050495684146881
      ],
      "type": "VEC3"
    },
    {
      "bufferView": 2,
      "byteOffset": 35124,
      "componentType": 5126,
      "count": 2927,
      "max": [
        0.9997831583023071,
        0.9986189603805542,
        0.9996859431266785
      ],
      "min": [
        -0.9997093677520752,
        -0.9991111755371094,
        -0.999839186668396
      ],
      "type": "VEC3"
    },
    {
      "bufferView": 1,
      "componentType": 5126,
      "count": 2927,
      "max": [
        0.7847099900245667,
        0.7240300178527832
      ],
      "min": [
        0.21526999771595,
        0.009069999679923058
      ],
      "type": "VEC2"
    },
    {
      "bufferView": 0,
      "componentType": 5125,
      "count": 14796,
      "type": "SCALAR"
    },
    {
      "bufferView": 2,
      "byteOffset": 70248,
      "componentType": 5126,
      "count": 1537,
      "max": [
        0.22325998544692993,
        0.22110283374786377,
        0.11603956669569016
      ],
      "min": [
        -0.213314026594162,
        -0.003128990065306425,
        -0.29058942198753357
      ],
      "type": "VEC3"
    },
    {
      "bufferView": 2,
      "byteOffset": 88692,
      "componentType": 5126,
      "count": 1537,
      "max": [
        0.9991880059242249,
        0.9999105334281921,
        0.9985272288322449
      ],
      "min": [
        -0.9996402263641357,
        -0.9978797435760498,
        -0.9476666450500488
      ],
      "type": "VEC3"
    },
    {
      "bufferView": 1,
      "byteOffset": 23416,
      "componentType": 5126,
      "count": 1537,
      "max": [
        0.9949300289154053,
        0.9975799918174744
      ],
      "min": [
        0.005049999803304672,
        0.0170499999076128
      ],
      "type": "VEC2"
    },
    {
      "bufferView": 0,
      "byteOffset": 59184,
      "componentType": 5125,
      "count": 8508,
      "type": "SCALAR"
    },
    {
      "bufferView": 2,
      "byteOffset": 107136,
      "componentType": 5126,
      "count": 1590,
      "max": [
        0.08073267340660095,
        0.0676705613732338,
        0.08790256083011627
      ],
      "min": [
        -0.07781185209751129,
        -0.05347641929984093,
        -0.07341109216213226
      ],
      "type": "VEC3"
    },
    {
      "bufferView": 2,
      "byteOffset": 126216,
      "componentType": 5126,
      "count": 1590,
      "max": [
        0.9986266493797302,
        0.41575324535369873,
        0.7427249550819397
      ],
      "min": [
        -0.9985580444335938,
        -0.9997503757476807,
        -0.9988012909889221
      ],
      "type": "VEC3"
    },
    {
      "bufferView": 1,
      "byteOffset": 35712,
      "componentType": 5126,
      "count": 1590,
      "max": [
        0.7381899952888489,
        0.9195500016212463
      ],
      "min": [
        0.261790007352829,
        0.5365399718284607
      ],
      "type": "VEC2"
    },
    {
      "bufferView": 0,
      "byteOffset": 93216,
      "componentType": 5125,
      "count": 8712,
      "type": "SCALAR"
    },
    {
      "bufferView": 2,
      "byteOffset": 145296,
      "componentType": 5126,
      "count": 1960,
      "max": [
        0.04754500091075897,
        0.06143243983387947,
        0.013556559570133686
      ],
      "min": [
        -0.04708442836999893,
        -0.027959590777754784,
        -0.10911539196968079
      ],
      "type": "VEC3"
    },
    {
      "bufferView": 2,
      "byteOffset": 168816,
      "componentType": 5126,
      "count": 1960,
      "max": [
        0.9998245239257813,
        0.9991993308067322,
        0.9990259408950806
      ],
      "min": [
        -0.9990133047103882,
        -0.9998340606689453,
        -0.9989707469940186
      ],
      "type": "VEC3"
    },
    {
      "bufferView": 1,
      "byteOffset": 48432,
      "componentType": 5126,
      "count": 1960,
      "max": [
        0.9818500280380249,
        0.9871199727058411
      ],
      "min": [
        0.018120000138878822,
        0.011009999550879002
      ],
      "type": "VEC2"
    },
    {
      "bufferView": 0,
      "byteOffset": 128064,
      "componentType": 5125,
      "count": 9300,
      "type": "SCALAR"
    },
    {
      "bufferView": 2,
      "byteOffset": 192336,
      "componentType": 5126,
      "count": 2301,
      "max": [
        0.09681127220392227,
        0.10445412248373032,
        0.013115519657731056
      ],
      "min": [
        -0.09503655135631561,
        0.05163288861513138,
        -0.06057140976190567
      ],
      "type": "VEC3"
    },
    {
      "bufferView": 2,
      "byteOffset": 219948,
      "componentType": 5126,
      "count": 2301,
      "max": [
        0.9998250603675842,
        0.999940812587738,
        0.9976596236228943
      ],
      "min": [
        -0.9998650550842285,
        -0.9975528717041016,
        -0.9999074935913086
      ],
      "type": "VEC3"
    },
    {
      "bufferView": 1,
      "byteOffset": 64112,
      "componentType": 5126,
      "count": 2301,
      "max": [
        0.8348600268363953,
        0.7417600154876709
      ],
      "min": [
        0.16512000560760498,
        0.5208699703216553
      ],
      "type": "VEC2"
    },
    {
      "bufferView": 0,
      "byteOffset": 165264,
      "componentType": 5125,
      "count": 11736,
      "type": "SCALAR"
    }
  ],
  "asset": {
    "extras": {
      "author": "Paul (Sketchfab) (https://sketchfab.com/paul_sketch)",
      "license": "CC-BY-4.0 (http://creativecommons.org/licenses/by/4.0/)",
      "source": "https://sketchfab.com/3d-models/head-lee-perry-smith-4d07eb2030db4406bc7eee971d1d3a97",
      "title": "Head (Lee Perry Smith)"
    },
    "generator": "Sketchfab-12.66.0",
    "version": "2.0"
  },
  "bufferViews": [
    {
      "buffer": 0,
      "byteLength": 212208,
      "name": "floatBufferViews",
      "target": 34963
    },
    {
      "buffer": 0,
      "byteLength": 82520,
      "byteOffset": 212208,
      "byteStride": 8,
      "name": "floatBufferViews",
      "target": 34962
    },
    {
      "buffer": 0,
      "byteLength": 247560,
      "byteOffset": 294728,
      "byteStride": 12,
      "name": "floatBufferViews",
      "target": 34962
    }
  ],
  "buffers": [
    {
      "byteLength": 542288,
      "uri": "scene.bin"
    }
  ],
  "images": [
    {
      "uri": "textures/defaultMat_baseColor.jpeg"
    }
  ],
  "materials": [
    {
      "name": "defaultMat",
      "pbrMetallicRoughness": {
        "baseColorTexture": {
          "index": 0
        },
        "metallicFactor": 0.0017045454545454545,
        "roughnessFactor": 0.5956439393939394
      }
    }
  ],
  "meshes": [
    {
      "name": "Object_0",
      "primitives": [
        {
          "attributes": {
            "NORMAL": 1,
            "POSITION": 0,
            "TEXCOORD_0": 2
          },
          "indices": 3,
          "material": 0,
          "mode": 4
        }
      ]
    },
    {
      "name": "Object_1",
      "primitives": [
        {
          "attributes": {
            "NORMAL": 5,
            "POSITION": 4,
            "TEXCOORD_0": 6
          },
          "indices": 7,
          "material": 0,
          "mode": 4
        }
      ]
    },
    {
      "name": "Object_2",
      "primitives": [
        {
          "attributes": {
            "NORMAL": 9,
            "POSITION": 8,
            "TEXCOORD_0": 10
          },
          "indices": 11,
          "material": 0,
          "mode": 4
        }
      ]
    },
    {
      "name": "Object_3",
      "primitives": [
        {
          "attributes": {
            "NORMAL": 13,
            "POSITION": 12,
            "TEXCOORD_0": 14
          },
          "indices": 15,
          "material": 0,
          "mode": 4
        }
      ]
    },
    {
      "name": "Object_4",
      "primitives": [
        {
          "attributes": {
            "NORMAL": 17,
            "POSITION": 16,
            "TEXCOORD_0": 18
          },
          "indices": 19,
          "material": 0,
          "mode": 4
        }
      ]
    }
  ],
  "nodes": [
    {
      "children": [
        1
      ],
      "matrix": [
        1.0,
        0.0,
        0.0,
        0.0,
        0.0,
        2.220446049250313e-16,
        -1.0,
        0.0,
        0.0,
        1.0,
        2.220446049250313e-16,
        0.0,
        0.0,
        0.0,
        0.0,
        1.0
      ],
      "name": "Sketchfab_model"
    },
    {
      "children": [
        2,
        3,
        4,
        5,
        6
      ],
      "name": "head.obj.cleaner.gles"
    },
    {
      "mesh": 0,
      "name": "Object_2"
    },
    {
      "mesh": 1,
      "name": "Object_3"
    },
    {
      "mesh": 2,
      "name": "Object_4"
    },
    {
      "mesh": 3,
      "name": "Object_5"
    },
    {
      "mesh": 4,
      "name": "Object_6"
    }
  ],
  "samplers": [
    {
      "magFilter": 9729,
      "minFilter": 9987,
      "wrapS": 10497,
      "wrapT": 10497
    }
  ],
  "scene": 0,
  "scenes": [
    {
      "name": "Sketchfab_Scene",
      "nodes": [
        0
      ]
    }
  ],
  "textures": [
    {
      "sampler": 0,
      "source": 0
    }
  ]
}
